<svg width="24" height="24" viewBox="0 0 24 24" fill="none" xmlns="http://www.w3.org/2000/svg">
<path d="M16.052 5.02908C15.8913 5.23997 15.821 5.506 15.8565 5.76871C15.8919 6.03142 16.0302 6.2693 16.241 6.43008C17.3324 7.26159 18.1555 8.39545 18.608 9.6908C19.0605 10.9861 19.1224 12.3859 18.7861 13.7161C18.4498 15.0464 17.73 16.2485 16.7163 17.1731C15.7025 18.0978 14.4395 18.7042 13.084 18.9171L13.793 18.2071C13.9751 18.0185 14.0759 17.7659 14.0736 17.5037C14.0714 17.2415 13.9662 16.9907 13.7808 16.8053C13.5954 16.6199 13.3446 16.5147 13.0824 16.5124C12.8202 16.5101 12.5676 16.6109 12.379 16.7931L9.87897 19.2931C9.6915 19.4806 9.58618 19.7349 9.58618 20.0001C9.58618 20.2652 9.6915 20.5196 9.87897 20.7071L12.379 23.2071C12.5676 23.3892 12.8202 23.49 13.0824 23.4878C13.3446 23.4855 13.5954 23.3803 13.7808 23.1949C13.9662 23.0095 14.0714 22.7587 14.0736 22.4965C14.0759 22.2343 13.9751 21.9817 13.793 21.7931L12.95 20.9511C14.742 20.7607 16.4357 20.0367 17.8116 18.8729C19.1876 17.7091 20.1826 16.159 20.6677 14.4234C21.1528 12.6877 21.1057 10.8465 20.5326 9.13787C19.9594 7.42928 18.8866 5.93208 17.453 4.84008C17.2421 4.67946 16.9761 4.60914 16.7133 4.64458C16.4506 4.68002 16.2127 4.81832 16.052 5.02908ZM14.122 3.29308L11.622 0.793085C11.4424 0.611831 11.2004 0.506053 10.9454 0.497402C10.6904 0.488751 10.4418 0.577882 10.2504 0.746551C10.059 0.915219 9.93927 1.15067 9.91576 1.40471C9.89226 1.65875 9.96675 1.91216 10.124 2.11308L10.207 2.20708L11.05 3.05008C9.28785 3.23752 7.62026 3.94092 6.25623 5.07212C4.8922 6.20332 3.89241 7.71198 3.3822 9.409C2.87198 11.106 2.87404 12.9159 3.3881 14.6117C3.90217 16.3076 4.90537 17.814 6.27197 18.9421C6.47713 19.1044 6.73776 19.1799 6.99794 19.1524C7.25812 19.1248 7.49713 18.9963 7.6637 18.7946C7.83027 18.5928 7.91113 18.3338 7.88893 18.0731C7.86674 17.8124 7.74325 17.5708 7.54497 17.4001C6.50513 16.5414 5.73537 15.4007 5.3282 14.1151C4.92102 12.8295 4.89375 11.4537 5.24967 10.153C5.60558 8.85223 6.32954 7.68195 7.33454 6.78276C8.33954 5.88356 9.58282 5.29371 10.915 5.08408L10.207 5.79308C10.0276 5.97304 9.92349 6.21452 9.91574 6.46847C9.90799 6.72242 9.99718 6.9698 10.1652 7.16036C10.3333 7.35093 10.5675 7.47039 10.8204 7.49448C11.0734 7.51858 11.326 7.4455 11.527 7.29008L11.621 7.20708L14.121 4.70708C14.2931 4.53489 14.3966 4.30579 14.4119 4.06277C14.4271 3.81974 14.3532 3.57949 14.204 3.38708L14.121 3.29308H14.122Z" fill="#485E6C"/>
</svg>
