<svg width="22" height="28" viewBox="0 0 22 28" fill="none" xmlns="http://www.w3.org/2000/svg">
<path d="M21.0656 12.6531C20.4589 11.2876 19.577 10.0621 18.475 9.05308L17.5656 8.2187C17.5347 8.19115 17.4976 8.1716 17.4574 8.16176C17.4172 8.15192 17.3752 8.1521 17.3351 8.16229C17.295 8.17247 17.258 8.19234 17.2273 8.22016C17.1967 8.24797 17.1734 8.28289 17.1594 8.32183L16.7531 9.48745C16.5 10.2187 16.0344 10.9656 15.375 11.7C15.3312 11.7468 15.2812 11.7593 15.2469 11.7625C15.2125 11.7656 15.1594 11.7593 15.1125 11.7156C15.0687 11.6781 15.0469 11.6218 15.05 11.5656C15.1656 9.68433 14.6031 7.56245 13.3719 5.25308C12.3531 3.33433 10.9375 1.83746 9.16874 0.793712L7.87812 0.0343379C7.70937 -0.065662 7.49374 0.0655878 7.50312 0.262463L7.57187 1.76246C7.61874 2.78746 7.49999 3.69371 7.21874 4.44683C6.87499 5.36871 6.38124 6.22496 5.74999 6.99371C5.31069 7.52797 4.81278 8.0112 4.26562 8.43433C2.94783 9.44735 1.87629 10.7454 1.13125 12.2312C0.388043 13.73 0.000906752 15.3801 0 17.0531C0 18.5281 0.290625 19.9562 0.865624 21.3031C1.42083 22.5998 2.22206 23.7767 3.225 24.7687C4.2375 25.7687 5.41249 26.5562 6.72187 27.1031C8.07812 27.6718 9.51562 27.9593 11 27.9593C12.4844 27.9593 13.9219 27.6718 15.2781 27.1062C16.5843 26.5625 17.772 25.7696 18.775 24.7718C19.7875 23.7718 20.5812 22.6031 21.1344 21.3062C21.7085 19.963 22.003 18.5169 22 17.0562C22 15.5312 21.6875 14.0499 21.0656 12.6531ZM17.2812 23.2562C15.6031 24.9187 13.375 25.8312 11 25.8312C8.62499 25.8312 6.39687 24.9187 4.71875 23.2562C3.04687 21.5968 2.125 19.3968 2.125 17.0562C2.125 15.6968 2.43125 14.3937 3.03437 13.1812C3.62187 11.9968 4.49687 10.9375 5.55937 10.1218C6.23699 9.60368 6.85159 9.00796 7.39062 8.34683C8.17187 7.39371 8.78437 6.33121 9.20937 5.19058C9.3837 4.72008 9.51037 4.23326 9.58749 3.73746C10.3406 4.43121 10.9719 5.26871 11.5 6.24996C12.5437 8.2062 13.025 9.94683 12.9312 11.4281C12.9088 11.7769 12.9658 12.1263 13.0979 12.45C13.23 12.7737 13.4337 13.0632 13.6937 13.2968C13.9191 13.5004 14.1827 13.6572 14.4692 13.758C14.7556 13.8589 15.0593 13.9018 15.3625 13.8843C15.9781 13.8531 16.5437 13.5812 16.9562 13.1218C17.3719 12.6562 17.7312 12.1812 18.0312 11.6968C18.4687 12.2562 18.8344 12.8656 19.125 13.5218C19.6219 14.6406 19.875 15.8312 19.875 17.0562C19.875 19.3968 18.9531 21.5999 17.2812 23.2562Z" fill="#303D46"/>
</svg>
