<svg width="22" height="25" viewBox="0 0 22 25" fill="none" xmlns="http://www.w3.org/2000/svg">
<path d="M8.7725 8.77049C9.31089 8.23204 9.67753 7.54604 9.82605 6.79922C9.97457 6.0524 9.89831 5.27832 9.6069 4.57485C9.31549 3.87137 8.82203 3.27011 8.1889 2.84708C7.55578 2.42406 6.81144 2.19827 6.05 2.19827C5.28856 2.19827 4.54422 2.42406 3.9111 2.84708C3.27798 3.27011 2.78451 3.87137 2.4931 4.57485C2.20169 5.27832 2.12543 6.0524 2.27395 6.79922C2.42247 7.54604 2.78911 8.23204 3.3275 8.77049L6.05 11.493L8.7725 8.77049ZM6.05 14.6038L1.771 10.327C0.925179 9.48077 0.349254 8.40276 0.116044 7.22925C-0.117166 6.05574 0.00280967 4.83944 0.460803 3.73411C0.918797 2.62878 1.69424 1.68407 2.6891 1.01941C3.68395 0.354755 4.85355 0 6.05 0C7.24646 0 8.41605 0.354755 9.4109 1.01941C10.4058 1.68407 11.1812 2.62878 11.6392 3.73411C12.0972 4.83944 12.2172 6.05574 11.984 7.22925C11.7507 8.40276 11.1748 9.48077 10.329 10.327L6.05 14.606V14.6038ZM6.05 7.69799C5.61239 7.69799 5.19271 7.52415 4.88327 7.21472C4.57384 6.90528 4.4 6.4856 4.4 6.04799C4.4 5.61038 4.57384 5.1907 4.88327 4.88126C5.19271 4.57183 5.61239 4.39799 6.05 4.39799C6.48761 4.39799 6.90729 4.57183 7.21673 4.88126C7.52616 5.1907 7.7 5.61038 7.7 6.04799C7.7 6.4856 7.52616 6.90528 7.21673 7.21472C6.90729 7.52415 6.48761 7.69799 6.05 7.69799ZM15.95 21.393L18.6725 18.6705C19.2109 18.132 19.5775 17.446 19.726 16.6992C19.8746 15.9524 19.7983 15.1783 19.5069 14.4748C19.2155 13.7714 18.722 13.1701 18.0889 12.7471C17.4558 12.3241 16.7114 12.0983 15.95 12.0983C15.1886 12.0983 14.4442 12.3241 13.8111 12.7471C13.178 13.1701 12.6845 13.7714 12.3931 14.4748C12.1017 15.1783 12.0254 15.9524 12.1739 16.6992C12.3225 17.446 12.6891 18.132 13.2275 18.6705L15.95 21.393ZM20.229 20.227L15.95 24.5038L11.671 20.2259C10.8252 19.3797 10.2493 18.3017 10.016 17.1281C9.78283 15.9546 9.90281 14.7383 10.3608 13.633C10.8188 12.5277 11.5942 11.583 12.5891 10.9183C13.584 10.2537 14.7535 9.8989 15.95 9.8989C17.1465 9.8989 18.316 10.2537 19.3109 10.9183C20.3058 11.583 21.0812 12.5277 21.5392 13.633C21.9972 14.7383 22.1172 15.9546 21.884 17.1281C21.6507 18.3017 21.0748 19.3797 20.229 20.2259V20.227ZM15.95 17.598C15.5124 17.598 15.0927 17.4241 14.7833 17.1147C14.4738 16.8053 14.3 16.3856 14.3 15.948C14.3 15.5104 14.4738 15.0907 14.7833 14.7813C15.0927 14.4718 15.5124 14.298 15.95 14.298C16.3876 14.298 16.8073 14.4718 17.1167 14.7813C17.4262 15.0907 17.6 15.5104 17.6 15.948C17.6 16.3856 17.4262 16.8053 17.1167 17.1147C16.8073 17.4241 16.3876 17.598 15.95 17.598Z" fill="#303D46"/>
</svg>
