<svg width="87" height="85" viewBox="0 0 87 85" fill="none" xmlns="http://www.w3.org/2000/svg">
<path d="M86.0744 44.9927L69.6679 29.9533L86.0744 16.737C86.5302 16.737 86.5302 16.2812 86.5302 16.2812C86.9859 15.3697 86.5302 14.0025 85.6187 13.0911L62.8318 0.786139C61.9203 0.330402 61.0089 0.330402 60.5531 0.786139L43.6908 13.5468L26.8285 0.786139C25.9171 0.330402 25.0056 0.330402 24.5498 0.786139L1.76296 13.0911C1.30723 13.0911 1.30723 13.5468 1.30723 13.5468C-0.0599875 14.0025 0.39575 15.8255 1.30723 16.2812L17.7138 29.4976L1.30723 44.5369L0.851487 44.9927C0.39575 45.9042 0.851487 47.2714 1.76296 48.1828L18.6253 57.2976V68.691C18.6253 69.6025 19.081 70.0583 19.5367 70.514L42.3236 84.1861C42.7794 84.1861 43.2351 84.6419 43.6908 84.6419C44.1466 84.6419 44.6023 84.6419 45.058 84.1861L67.8449 70.514C68.7564 70.0583 68.7564 69.1468 68.7564 68.691V57.2976L85.6187 48.1828L86.0744 47.7271C87.4416 47.2714 86.9859 45.9042 86.0744 44.9927ZM61.9203 4.88778L80.6056 14.914L66.4777 27.2189L47.7925 16.2812L61.9203 4.88778ZM62.3761 29.9533L43.6908 42.2583L25.0056 29.9533L43.6908 19.0156L62.3761 29.9533ZM6.77608 14.914L25.4613 4.88778L40.0449 15.8255L20.9039 27.2189L6.77608 14.914ZM6.77608 45.9042L21.3597 32.232L40.0449 44.5369L25.4613 56.3861L6.77608 45.9042ZM64.199 68.2353L43.6908 80.5402L23.1826 68.2353V60.4878L24.5498 60.9435H25.4613C25.9171 60.9435 26.3728 60.9435 26.8285 60.4878L43.6908 47.2714L60.5531 60.4878C61.0089 60.9435 61.4646 60.9435 61.9203 60.9435C62.3761 60.9435 62.8318 60.9435 62.8318 60.4878L64.199 60.032V68.2353ZM61.9203 56.3861L47.3367 44.9927L66.022 32.6878L80.6056 46.3599L61.9203 56.3861Z" fill="#303D46"/>
</svg>
