<svg width="50" height="43" viewBox="0 0 50 43" fill="none" xmlns="http://www.w3.org/2000/svg">
<path d="M37.5 0C40.8152 0 43.9946 1.31696 46.3388 3.66117C48.683 6.00537 50 9.18479 50 12.5C50 15.95 48.6 19.075 46.35 21.35L25 42.675L3.65 21.35C1.4 19.075 0 15.95 0 12.5C0 9.18479 1.31696 6.00537 3.66117 3.66117C6.00537 1.31696 9.18479 0 12.5 0C15.95 0 19.075 1.4 21.35 3.65L25 7.325L28.65 3.65C30.925 1.4 34.05 0 37.5 0ZM33.975 8.975L17.925 25L25 32.075L41.025 16.025C41.95 15.125 42.5 13.875 42.5 12.5C42.5 11.1739 41.9732 9.90215 41.0355 8.96447C40.0979 8.02678 38.8261 7.5 37.5 7.5C36.125 7.5 34.875 8.05 33.975 8.975ZM16.025 8.975C15.125 8.05 13.875 7.5 12.5 7.5C11.1739 7.5 9.90215 8.02678 8.96447 8.96447C8.02678 9.90215 7.5 11.1739 7.5 12.5C7.5 13.875 8.05 15.125 8.975 16.025L12.625 19.7L19.7 12.625L16.025 8.975Z" fill="#485E6C"/>
</svg>
