<svg width="95" height="80" viewBox="0 0 95 80" fill="none" xmlns="http://www.w3.org/2000/svg">
<g clip-path="url(#clip0_634_252)">
<path d="M20.5841 0.192208C25.9126 -0.498903 31.4493 0.687393 36.0096 3.53036C38.5837 5.04776 40.643 7.24406 42.7544 9.32332C44.2859 10.8226 45.8015 12.34 47.337 13.8355L47.3937 13.9911C46.2467 15.1204 44.9452 17.3785 43.4889 20.7659C40.4348 21.84 38.3507 22.9248 37.2363 24.0192C34.7489 21.6248 32.3422 19.1455 29.8648 16.7389C27.5089 14.5326 23.9485 13.6433 20.863 14.6559C17.3493 15.6437 14.6678 19.0041 14.4819 22.6515C14.3607 24.5489 14.8559 26.4763 15.8822 28.0766C16.5207 29.1074 17.4544 29.8933 18.2907 30.7541C20.3015 32.7748 22.3604 34.7489 24.3407 36.7978C23.283 37.837 22.0311 39.8485 20.5841 42.8326C17.5067 44.2911 15.3719 45.6178 14.1789 46.8118C11.5056 44.2981 8.94927 41.6489 6.30038 39.1074C3.14631 35.8259 1.03705 31.5685 0.309269 27.0767C-0.490731 22.2574 0.268898 17.1837 2.50001 12.8333C4.37334 9.18591 7.20816 6.01776 10.6574 3.79258C13.6556 1.90739 17.0519 0.586653 20.5841 0.192578V0.192208Z" fill="#EA4335"/>
<path d="M47.4382 59.5477L70.5522 36.7673L76.8015 40.4792L80.7119 46.834L47.4382 79.7518L24.3567 56.917L28.7859 50.684L34.5789 46.8258L47.4382 59.5477Z" fill="#34A853"/>
<path d="M37.2564 24.0415L43.0701 27.1863L47.4382 34.1367L24.3567 56.9171L14.179 46.8119L37.2564 24.0415Z" fill="#FBBC05"/>
<path d="M75.3085 0.331446C82.0819 1.47959 88.3115 5.70848 91.7263 11.6914C95.6159 18.2644 95.8282 26.7937 92.3767 33.5951C90.9463 36.5166 88.7619 38.9818 86.4359 41.2229C84.5063 43.0674 82.6737 45.0359 80.7119 46.834C77.3171 43.4881 73.9185 40.1437 70.5522 36.7674C72.9508 34.3448 75.3874 31.9622 77.7941 29.5477C79.346 27.9796 80.3178 25.8296 80.3967 23.6174C80.5037 21.1055 79.5115 18.5577 77.6911 16.8159C75.836 15.06 73.2374 14.0618 70.6793 14.2737C68.4793 14.3789 66.3552 15.3774 64.8034 16.9329C59.0122 22.6633 53.2356 28.41 47.4382 34.1366C44.0297 30.7863 40.6167 27.4403 37.2567 24.0414C37.2505 24.0335 37.2437 24.0261 37.2363 24.0192C40.6308 20.6852 44.003 17.3289 47.3937 13.9911C49.8508 11.5703 52.3 9.13922 54.7589 6.717C57.9434 3.51811 62.1423 1.42256 66.5293 0.461076C69.4204 -0.0826277 72.4034 -0.143368 75.3085 0.331446Z" fill="#4285F4"/>
</g>
<defs>
<clipPath id="clip0_634_252">
<rect width="94.8148" height="80" fill="white"/>
</clipPath>
</defs>
</svg>
