<svg width="25" height="22" viewBox="0 0 25 22" fill="none" xmlns="http://www.w3.org/2000/svg">
<path d="M5.95831 11.9166H1.37499C1.13188 11.9166 0.898724 11.82 0.726816 11.6481C0.554908 11.4762 0.458332 11.2431 0.458332 11C0.458332 10.7568 0.554908 10.5237 0.726816 10.3518C0.898724 10.1799 1.13188 10.0833 1.37499 10.0833H5.4656L7.02393 7.7458C7.10723 7.61813 7.22106 7.51325 7.35511 7.44066C7.48916 7.36806 7.63919 7.33004 7.79164 7.33004C7.94408 7.33004 8.09412 7.36806 8.22817 7.44066C8.36222 7.51325 8.47604 7.61813 8.55934 7.7458L11.4583 12.1L12.5239 10.4958C12.6068 10.368 12.7207 10.2632 12.8549 10.1911C12.9891 10.119 13.1393 10.0819 13.2916 10.0833H16.0416C16.2847 10.0833 16.5179 10.1799 16.6898 10.3518C16.8617 10.5237 16.9583 10.7568 16.9583 11C16.9583 11.2431 16.8617 11.4762 16.6898 11.6481C16.5179 11.82 16.2847 11.9166 16.0416 11.9166H13.7843L12.226 14.2541C12.1427 14.3818 12.0289 14.4867 11.8948 14.5593C11.7608 14.6319 11.6107 14.6699 11.4583 14.6699C11.3058 14.6699 11.1558 14.6319 11.0218 14.5593C10.8877 14.4867 10.7739 14.3818 10.6906 14.2541L7.79164 9.89996L6.72602 11.5041C6.6431 11.6319 6.52927 11.7367 6.39507 11.8088C6.26088 11.881 6.11065 11.918 5.95831 11.9166ZM17.8749 7.87397e-08C16.8076 7.87397e-08 15.755 0.248497 14.8004 0.725811C13.8457 1.20312 13.0153 1.89614 12.375 2.74999C11.5092 1.59564 10.3022 0.742955 8.92487 0.312718C7.54757 -0.117519 6.06981 -0.103496 4.70092 0.352801C3.33203 0.809098 2.14141 1.68453 1.29771 2.85511C0.454005 4.02568 0 5.43204 0 6.87497C0 7.04685 4.35392e-08 7.21872 0.0114583 7.37914C0.0262404 7.62336 0.136861 7.85187 0.319256 8.01495C0.50165 8.17803 0.741064 8.2625 0.985413 8.24997C1.10587 8.24268 1.22371 8.21167 1.33215 8.15873C1.4406 8.10579 1.53753 8.03196 1.61737 7.94147C1.69721 7.85098 1.7584 7.74561 1.79743 7.63142C1.83645 7.51722 1.85255 7.39644 1.84478 7.27601C1.83333 7.14997 1.83333 7.01247 1.83333 6.87497C1.83226 5.70947 2.23505 4.57959 2.97315 3.67758C3.71124 2.77557 4.73906 2.15715 5.88173 1.92754C7.0244 1.69793 8.21132 1.8713 9.24057 2.41817C10.2698 2.96504 11.0778 3.85162 11.527 4.92707C11.5961 5.09519 11.7136 5.23899 11.8646 5.34019C12.0155 5.44139 12.1932 5.49543 12.375 5.49543C12.5567 5.49543 12.7344 5.44139 12.8853 5.34019C13.0363 5.23899 13.1538 5.09519 13.2229 4.92707C13.6721 3.85162 14.4801 2.96504 15.5093 2.41817C16.5386 1.8713 17.7255 1.69793 18.8682 1.92754C20.0108 2.15715 21.0387 2.77557 21.7768 3.67758C22.5149 4.57959 22.9176 5.70947 22.9166 6.87497C22.9166 13.2 14.4374 18.7572 12.375 20.0176C11.1604 19.2843 7.73435 17.0614 5.12186 14.0593C5.04211 13.9683 4.94521 13.8939 4.83669 13.8403C4.72817 13.7867 4.61016 13.755 4.4894 13.747C4.2455 13.7309 4.0052 13.8123 3.82134 13.9734C3.63749 14.1344 3.52514 14.362 3.50903 14.6058C3.49291 14.8497 3.57434 15.09 3.7354 15.2739C7.17289 19.1926 11.7333 21.7708 11.9281 21.8853C12.065 21.9606 12.2187 22 12.375 22C12.5312 22 12.6849 21.9606 12.8218 21.8853C14.9298 20.653 16.907 19.2095 18.7228 17.577C22.7218 13.9791 24.7499 10.3812 24.7499 6.87497C24.7499 5.05162 24.0256 3.30294 22.7363 2.01363C21.447 0.724326 19.6983 7.87397e-08 17.8749 7.87397e-08Z" fill="#303D46"/>
</svg>
