<svg width="22" height="26" viewBox="0 0 22 26" fill="none" xmlns="http://www.w3.org/2000/svg">
<path d="M4.4 0C6.63771 0 7.75657 2.71543 6.18514 4.29943C4.60114 5.87086 1.88571 4.752 1.88571 2.51429C1.88571 1.84746 2.15061 1.20794 2.62213 0.736417C3.09365 0.264897 3.73317 0 4.4 0ZM2.51429 6.28571H6.28571C6.95254 6.28571 7.59206 6.55061 8.06358 7.02213C8.5351 7.49365 8.8 8.13317 8.8 8.8V15.7143H6.91429V25.1429H1.88571V15.7143H0V8.8C0 8.13317 0.264897 7.49365 0.736417 7.02213C1.20794 6.55061 1.84746 6.28571 2.51429 6.28571ZM22 7.54286H14.4571V10.0571H22V7.54286ZM22 11.3143H18.2286V13.8286H22V11.3143ZM22 0H14.4571V2.51429H22V0ZM22 3.77143H18.2286V6.28571H22V3.77143ZM22 15.0857H14.4571V17.6H22V15.0857ZM22 22.6286H14.4571V25.1429H22V22.6286ZM22 18.8571H18.2286V21.3714H22" fill="#303D46"/>
</svg>
