<svg width="42" height="42" viewBox="0 0 42 42" fill="none" xmlns="http://www.w3.org/2000/svg">
<rect x="0.5" y="0.5" width="41" height="41" rx="9.5" stroke="#303D46"/>
<path d="M34.5645 11.4838C34.2852 10.8021 33.8825 10.1843 33.379 9.66503C32.875 9.14423 32.2808 8.73036 31.6288 8.44592C30.9526 8.14981 30.2274 7.99824 29.4952 8.00002C28.468 8.00002 27.4658 8.29656 26.5948 8.85669C26.3865 8.99068 26.1886 9.13785 26.001 9.2982C25.8135 9.13785 25.6156 8.99068 25.4072 8.85669C24.5363 8.29656 23.5341 8.00002 22.5069 8.00002C21.7672 8.00002 21.0505 8.14938 20.3733 8.44592C19.7191 8.73148 19.1294 9.14224 18.6231 9.66503C18.1189 10.1837 17.7161 10.8016 17.4376 11.4838C17.1479 12.1933 17 12.9467 17 13.7221C17 14.4536 17.1417 15.2158 17.423 15.9912C17.6584 16.6392 17.9959 17.3114 18.4272 17.9901C19.1107 19.0643 20.0503 20.1845 21.2171 21.3202C23.1507 23.2026 25.0655 24.503 25.1468 24.5557L25.6406 24.8896C25.8593 25.0368 26.1406 25.0368 26.3594 24.8896L26.8532 24.5557C26.9345 24.5008 28.8472 23.2026 30.7828 21.3202C31.9496 20.1845 32.8893 19.0643 33.5727 17.9901C34.004 17.3114 34.3437 16.6392 34.577 15.9912C34.8583 15.2158 35 14.4536 35 13.7221C35.0021 12.9467 34.8541 12.1933 34.5645 11.4838Z" fill="#303D46"/>
</svg>
