<svg width="85" height="85" viewBox="0 0 85 85" fill="none" xmlns="http://www.w3.org/2000/svg">
<g clip-path="url(#clip0_633_91)">
<path d="M84.1975 44.5655C83.9783 46.131 83.8094 47.7032 83.5507 49.2621C82.8638 53.3722 81.5419 57.3504 79.6324 61.0542C78.6611 62.9486 76.6505 63.6612 74.8613 62.7754C73.0721 61.8896 72.4186 59.8263 73.3681 57.9275C76.0453 52.5818 77.3631 46.9357 77.1372 40.9564C76.7579 30.9711 72.8418 22.5864 65.4197 15.9383C58.1993 9.47222 49.6173 6.40471 39.9653 7.13267C26.3753 8.15883 16.3396 14.9319 10.4085 27.1888C5.51011 37.3188 5.84778 47.6527 10.7856 57.7652C12.0793 60.4183 10.3471 63.2161 7.66548 63.135C7.0289 63.1336 6.40587 62.951 5.86926 62.6085C5.33264 62.266 4.90462 61.7779 4.63525 61.2011C2.37286 56.8122 0.911591 52.0549 0.320126 47.1528C0.219264 46.3437 0.10744 45.5368 0 44.7299V39.4676C0.122788 38.4414 0.219264 37.4131 0.37275 36.3979C1.70149 27.1274 5.6351 19.122 12.2306 12.4805C18.53 6.1394 26.0925 2.15537 34.9266 0.633674C36.433 0.374942 37.9547 0.219264 39.4676 0H44.7299C44.9377 0.0596668 45.1495 0.104365 45.3636 0.133751C51.8319 0.622711 57.8924 2.46672 63.431 5.83463C74.4183 12.5156 81.1914 22.172 83.5551 34.8477C83.8401 36.3825 83.9936 37.9174 84.1975 39.4676V44.5655Z" fill="#303D46"/>
<path d="M15.9515 84.1976C14.4166 83.4828 13.9781 82.2395 13.9956 80.5994C14.0636 75.8326 14.0088 71.0636 14.0329 66.2968C14.0243 65.6949 14.14 65.0978 14.3728 64.5427C14.7938 63.6306 15.6116 63.1679 16.6246 63.1504C17.1086 63.132 17.5876 63.2528 18.005 63.4984C18.4224 63.744 18.7606 64.1042 18.9795 64.5361C20.0759 66.4656 21.1393 68.4083 22.2159 70.3444C22.3474 70.5812 22.4834 70.8137 22.7092 71.2083C22.757 70.9957 22.7921 70.7805 22.8145 70.5637C22.8145 69.0025 22.8145 67.4392 22.8145 65.878C22.8145 64.3169 23.9108 63.1657 25.3842 63.1438C25.7375 63.133 26.0892 63.1942 26.418 63.3238C26.7468 63.4533 27.0457 63.6485 27.2966 63.8973C27.5475 64.1462 27.7451 64.4435 27.8774 64.7712C28.0096 65.099 28.0738 65.4502 28.0658 65.8035C28.0987 71.0373 28.0812 76.2712 28.0658 81.505C28.0658 82.8491 27.2458 83.6319 26.1407 84.1976H24.8251C23.8143 83.8314 23.2113 83.0749 22.7224 82.1474C21.7927 80.3933 20.806 78.6611 19.8369 76.9224C19.7141 76.7031 19.565 76.4838 19.429 76.2777C19.265 77.7994 19.2196 79.3316 19.2931 80.8604C19.383 82.4851 18.7778 83.5968 17.2605 84.1976H15.9515Z" fill="#303D46"/>
<path d="M37.0009 84.1976C35.4441 83.4894 35.0121 82.2374 35.045 80.5994C35.1196 77.0123 35.0648 73.4207 35.0692 69.8314C35.0692 65.7092 37.6214 63.1526 41.7195 63.1482C43.2543 63.1482 44.7892 63.1482 46.324 63.1482C47.9291 63.1613 49.1109 64.2774 49.1197 65.764C49.1284 67.2506 47.94 68.3952 46.3504 68.3952C44.7607 68.3952 43.171 68.3952 41.5813 68.3952C40.6297 68.3952 40.3491 68.6693 40.3337 69.6011C40.3337 70.2589 40.3337 70.9167 40.3447 71.5745C40.3677 71.6824 40.4022 71.7876 40.4477 71.8881C42.2326 71.8881 44.0327 71.8881 45.8351 71.8881C46.2451 71.8783 46.6551 71.9106 47.0586 71.9845C47.6691 72.12 48.2114 72.4685 48.5883 72.9675C48.9652 73.4666 49.152 74.0835 49.1153 74.7078C49.0818 75.3449 48.8129 75.9468 48.3608 76.3969C47.9087 76.847 47.3055 77.1132 46.6683 77.1438C44.89 77.1943 43.1074 77.1636 41.327 77.168H40.3315C40.3315 78.4835 40.2723 79.707 40.3447 80.924C40.4433 82.529 39.8031 83.61 38.3165 84.1976H37.0009Z" fill="#303D46"/>
<path d="M61.3392 84.1975C60.742 84.013 60.1563 83.7934 59.5851 83.5397C57.3508 82.4105 56.1931 80.5468 56.1405 78.0713C56.0776 75.1477 56.0776 72.2162 56.1405 69.2766C56.2194 65.7135 58.8681 63.1679 62.4202 63.1372C64.0632 63.1255 65.707 63.1255 67.3514 63.1372C68.9696 63.1482 70.1471 64.2335 70.1756 65.7245C70.2041 67.2155 68.9937 68.3842 67.3514 68.3951C65.7618 68.4061 64.1721 68.3951 62.5824 68.3951C61.69 68.3951 61.3962 68.6824 61.3918 69.5748C61.3816 72.2878 61.3816 75.0008 61.3918 77.7139C61.3918 78.6413 61.69 78.911 62.6438 78.9154C64.1239 78.9154 65.6039 78.9154 67.0839 78.9154C68.7262 78.9154 69.759 79.6083 70.0813 80.9173C70.4124 82.2636 69.8423 83.2919 68.3469 84.055C68.3052 84.0769 68.2833 84.1361 68.2526 84.1778L61.3392 84.1975Z" fill="#303D46"/>
<path d="M42.0812 21.0317C48.7446 21.1743 54.0004 24.0554 58.1752 29.0634C58.394 29.329 58.5577 29.6357 58.6565 29.9653C58.7554 30.295 58.7875 30.6411 58.7509 30.9833C58.7144 31.3255 58.6099 31.657 58.4437 31.9583C58.2774 32.2597 58.0527 32.5249 57.7827 32.7383C56.6667 33.6416 55.1121 33.5145 54.1078 32.3568C52.3252 30.3023 50.2926 28.5854 47.7777 27.5022C42.1207 25.0684 35.8804 26.4191 31.2868 31.0697C30.8483 31.5082 30.4427 32.0037 30.0063 32.4576C29.5402 32.9692 28.8913 33.2766 28.2002 33.3131C27.509 33.3497 26.8314 33.1124 26.3139 32.6528C25.8029 32.2034 25.4888 31.5713 25.4392 30.8926C25.3896 30.2139 25.6084 29.5429 26.0486 29.0239C30.2431 24.0291 35.5055 21.1677 42.0812 21.0317Z" fill="#303D46"/>
<path d="M42.0637 31.561C45.7692 31.6509 48.7117 33.1792 51.0425 35.9332C52.0555 37.1325 51.9525 38.7134 50.8496 39.6826C49.7467 40.6517 48.1416 40.5443 47.1023 39.3975C45.9446 38.117 44.6049 37.1895 42.8508 36.9856C40.6406 36.7313 38.8229 37.5206 37.3473 39.1388C36.7969 39.744 36.2093 40.2351 35.3542 40.3075C34.2337 40.3974 33.3545 39.9786 32.8063 39.005C32.2582 38.0315 32.2976 36.9834 33.0256 36.0888C35.3805 33.2274 38.3713 31.6465 42.0637 31.561Z" fill="#303D46"/>
<path d="M45.5873 45.6421C45.5764 46.3311 45.3617 47.0015 44.9703 47.5686C44.5789 48.1358 44.0283 48.5743 43.3879 48.8289C42.7476 49.0834 42.0462 49.1427 41.3722 48.9991C40.6983 48.8555 40.0819 48.5155 39.601 48.022C39.12 47.5285 38.796 46.9036 38.6697 46.2262C38.5435 45.5488 38.6207 44.8491 38.8917 44.2155C39.1626 43.5819 39.6151 43.0428 40.1921 42.6661C40.7691 42.2893 41.4448 42.092 42.1339 42.0988C43.0609 42.1132 43.9445 42.494 44.5916 43.158C45.2387 43.8219 45.5966 44.7151 45.5873 45.6421Z" fill="#303D46"/>
</g>
<defs>
<clipPath id="clip0_633_91">
<rect width="84.1975" height="84.1975" fill="white"/>
</clipPath>
</defs>
</svg>
