<svg width="23" height="23" viewBox="0 0 23 23" fill="none" xmlns="http://www.w3.org/2000/svg">
<path fill-rule="evenodd" clip-rule="evenodd" d="M8.1138 0.765958C8.44562 1.0674 8.57037 1.53512 8.43275 1.96177C8.1479 2.84482 7.9936 3.78781 7.9936 4.76912C7.9936 9.81453 12.0837 13.9047 17.1291 13.9047C18.4176 13.9047 19.641 13.6386 20.7496 13.1595C21.1612 12.9817 21.6387 13.0611 21.9705 13.3625C22.3023 13.6639 22.427 14.1316 22.2894 14.5583C20.8093 19.1472 16.5038 22.4692 11.4194 22.4692C5.11267 22.4692 0 17.3566 0 11.0498C0 6.34925 2.83993 2.3145 6.89294 0.562958C7.30446 0.385117 7.78197 0.464516 8.1138 0.765958ZM5.74302 3.8911C3.63452 5.56534 2.28389 8.15063 2.28389 11.0498C2.28389 16.0952 6.37402 20.1854 11.4194 20.1854C14.6303 20.1854 17.456 18.5284 19.0853 16.0215C18.4493 16.1313 17.7957 16.1886 17.1291 16.1886C10.8224 16.1886 5.70971 11.0759 5.70971 4.76912C5.70971 4.47381 5.72095 4.181 5.74302 3.8911ZM14.6514 3.05621C14.6514 2.42553 15.1627 1.91426 15.7934 1.91426H21.1259C21.6109 1.91426 22.043 2.22058 22.2035 2.67822C22.364 3.13585 22.218 3.64496 21.8393 3.94791L18.6717 6.48204H21.1259C21.7566 6.48204 22.2679 6.9933 22.2679 7.62398C22.2679 8.25466 21.7566 8.76592 21.1259 8.76592H15.4162C14.9313 8.76592 14.4992 8.4596 14.3387 8.00197C14.1781 7.54434 14.3242 7.03523 14.7029 6.73227L17.8705 4.19815H15.7934C15.1627 4.19815 14.6514 3.68688 14.6514 3.05621Z" fill="#303D46"/>
</svg>
