<svg width="32" height="32" viewBox="0 0 32 32" fill="none" xmlns="http://www.w3.org/2000/svg">
<path d="M14.4299 8.19993C14.5844 8.20229 14.7385 8.21904 14.89 8.24995L17.7299 8.86995C18.05 8.91604 18.3648 8.99308 18.67 9.09996C19.7747 9.78244 20.8305 10.5409 21.8299 11.3699C22.0286 11.5853 22.1848 11.8364 22.29 12.1099C22.71 13.0299 23.1 13.96 23.5 14.88C23.5355 14.9782 23.6009 15.0629 23.687 15.1221C23.7731 15.1812 23.8755 15.212 23.9799 15.2099C25.0699 15.3699 27.0499 15.4099 28.1199 15.6499C28.2993 15.7125 28.4605 15.8182 28.5894 15.9576C28.7184 16.097 28.8111 16.266 28.8594 16.4497C28.9078 16.6333 28.9104 16.826 28.8669 17.0109C28.8234 17.1958 28.7351 17.3671 28.6099 17.5099C28.5019 17.6496 28.362 17.7615 28.202 17.8363C28.042 17.9111 27.8664 17.9466 27.6899 17.94C27.567 17.9542 27.4428 17.9542 27.3199 17.94C26.0099 17.75 23.8699 17.5699 22.5699 17.3699C22.4204 17.3573 22.2768 17.3053 22.1539 17.2193C22.0309 17.1332 21.933 17.0162 21.8699 16.88C21.8172 16.7619 21.7335 16.6602 21.6279 16.5856C21.5222 16.5111 21.3985 16.4663 21.2696 16.4561C21.1407 16.4459 21.0114 16.4705 20.8953 16.5275C20.7793 16.5845 20.6807 16.6717 20.6099 16.78C20.1199 17.57 19.61 18.3599 19.13 19.1499C19.07 19.2499 19.0399 19.3199 19.1899 19.4299C20.3199 20.1799 20.67 20.19 21.78 20.97C22.0393 21.1372 22.234 21.3877 22.3321 21.6803C22.4302 21.9729 22.4259 22.2901 22.3199 22.5799C21.5199 24.4199 20.4799 26.96 19.3199 29.29C19.2349 29.4387 19.1167 29.5657 18.9744 29.6611C18.8322 29.7566 18.6698 29.8178 18.5 29.8399C18.3871 29.8541 18.2729 29.8541 18.16 29.8399C17.804 29.8457 17.4595 29.7137 17.1986 29.4714C16.9377 29.2291 16.7806 28.8954 16.76 28.54C16.7382 28.2475 16.7934 27.9545 16.92 27.69C17.64 26.08 18.3499 24.53 19.0599 22.91C19.0949 22.8285 19.1011 22.7375 19.0775 22.6521C19.0538 22.5667 19.0017 22.4919 18.9299 22.44C17.5699 21.44 15.4399 19.9099 14.0699 18.9599C13.7711 18.7663 13.5318 18.4939 13.3782 18.1727C13.2247 17.8514 13.1629 17.494 13.1999 17.1399C13.3094 16.5531 13.5449 15.997 13.89 15.5099C14.75 14.1999 15.63 12.9199 16.52 11.6099C16.5555 11.5563 16.5775 11.4949 16.5843 11.431C16.5911 11.367 16.5823 11.3023 16.5588 11.2424C16.5352 11.1826 16.4976 11.1293 16.449 11.087C16.4005 11.0448 16.3425 11.015 16.28 11C15.78 10.89 15.28 10.78 14.79 10.69H14.7099C14.629 10.6868 14.549 10.7077 14.4799 10.75C13.4799 11.43 12.42 12.12 11.39 12.82C11.1552 12.9958 10.8729 13.0968 10.5799 13.1099C10.3229 13.1028 10.0747 13.0154 9.86995 12.8599C9.63975 12.6895 9.48077 12.44 9.42354 12.1594C9.3663 11.8787 9.4148 11.5869 9.55989 11.3399C9.81947 10.9874 10.1633 10.7054 10.5599 10.5199C11.5599 9.84994 12.5599 9.19994 13.5599 8.51994C13.851 8.31233 14.2026 8.20686 14.5599 8.21995L14.4299 8.19993ZM14.5599 6.81996C13.93 6.81398 13.3143 7.00639 12.7999 7.36995C12.2199 7.77995 11.62 8.18994 11.03 8.57994L9.85994 9.37996L9.67988 9.49995C9.17768 9.76817 8.75908 10.1695 8.46992 10.66C8.15592 11.208 8.05478 11.8525 8.18574 12.4704C8.31671 13.0883 8.67055 13.6364 9.17988 14.0099C9.62228 14.3391 10.1585 14.5178 10.7099 14.5199C11.2844 14.508 11.8419 14.3233 12.3099 13.9899L14.2299 12.69C13.7699 13.37 13.2999 14.0599 12.8499 14.7599C12.3896 15.418 12.079 16.169 11.9399 16.9599C11.8673 17.5716 11.9653 18.1914 12.223 18.7508C12.4806 19.3102 12.888 19.7876 13.4 20.13C14.04 20.57 15.4 21.7 16.03 22.13L17.5699 23.13L16.38 25.79L15.79 27.1099C15.4756 27.76 15.4011 28.5003 15.5799 29.1999C15.741 29.7942 16.0942 30.3185 16.5844 30.6911C17.0746 31.0638 17.6743 31.2637 18.29 31.2599C18.502 31.2614 18.7135 31.2379 18.92 31.19C19.2961 31.127 19.6526 30.9777 19.9614 30.7539C20.2702 30.5301 20.5229 30.2378 20.6999 29.8999C21.5899 28.1099 22.3899 26.24 23.0999 24.6C23.3199 24.07 23.5299 23.5999 23.7299 23.1199C23.9525 22.5431 23.975 21.9082 23.7937 21.317C23.6123 20.7259 23.2377 20.2128 22.7299 19.8599C21.9799 19.3299 21.9599 19.5499 21.0799 18.9599C21.1999 18.7499 21.3299 18.55 21.4499 18.35C21.7444 18.5895 22.0847 18.7665 22.4499 18.8699C23.1574 19.0423 23.8818 19.1362 24.6099 19.1499C25.1899 19.2099 25.7899 19.2799 26.3599 19.3599C26.5699 19.3599 27.6099 19.4199 27.7999 19.4199C28.1818 19.426 28.5602 19.3454 28.9066 19.1844C29.2529 19.0233 29.5583 18.7859 29.7999 18.4899C30.0638 18.1759 30.2488 17.8033 30.3393 17.4031C30.4298 17.003 30.4231 16.587 30.3199 16.19C30.2159 15.7907 30.0183 15.422 29.7436 15.1142C29.4689 14.8064 29.1248 14.5685 28.7399 14.4199H28.64H28.53C27.81 14.2599 26.25 14.1799 25.53 14.1099L24.6799 14.0199C24.6199 13.8699 24.5599 13.7299 24.4899 13.5899C24.2199 12.9599 23.94 12.3099 23.65 11.6699V11.6C23.4793 11.1635 23.2087 10.773 22.8599 10.4599C21.7876 9.57837 20.6549 8.77306 19.4699 8.04994C19.1283 7.91011 18.7731 7.80622 18.41 7.73994H18.1999L16.8199 7.43995L15.3699 7.11995C15.1162 7.07013 14.8585 7.04337 14.5999 7.03996L14.5599 6.81996Z" fill="#303D46"/>
<path d="M10.6101 20.9C10.6101 20.9 10.7101 20.95 10.8001 21.03C11.4401 21.57 11.9901 22.12 12.6901 22.69C12.2718 23.4056 11.8179 24.0998 11.3301 24.77C11.1966 24.9532 11.0223 25.1028 10.8209 25.2069C10.6196 25.3111 10.3968 25.3669 10.1702 25.37H4.4601C4.13526 25.3392 3.8298 25.2018 3.59108 24.9794C3.35236 24.757 3.19381 24.4618 3.14015 24.14C3.11526 23.9381 3.13469 23.7332 3.19704 23.5396C3.25938 23.346 3.3631 23.1683 3.50112 23.0188C3.63913 22.8694 3.80804 22.7518 3.99611 22.6743C4.18418 22.5968 4.38688 22.5612 4.5901 22.57H9.08009C9.17369 22.5746 9.26677 22.5537 9.3495 22.5097C9.43224 22.4657 9.50152 22.4002 9.55007 22.32L10.4601 21.03C10.5301 20.93 10.5701 20.88 10.6101 20.88V20.9ZM10.6101 19.48C10.3473 19.4828 10.0895 19.5533 9.86183 19.6846C9.63413 19.816 9.44408 20.0038 9.31008 20.23L8.86012 20.87L8.65016 21.16H4.61012C4.19519 21.1627 3.78555 21.2532 3.4081 21.4255C3.03064 21.5979 2.69398 21.8482 2.42018 22.16C2.1609 22.4549 1.96854 22.8025 1.85634 23.1788C1.74414 23.5551 1.71472 23.9512 1.77016 24.34C1.86885 24.9988 2.19278 25.603 2.68691 26.0497C3.18103 26.4964 3.81476 26.758 4.48012 26.79H10.1901C10.6255 26.7862 11.0544 26.6834 11.4442 26.4894C11.8341 26.2953 12.1746 26.0151 12.4401 25.67C12.871 25.1003 13.2684 24.5059 13.6301 23.89L13.8801 23.48L14.3401 22.74C14.3936 22.6563 14.4141 22.5556 14.3975 22.4576C14.3808 22.3596 14.3283 22.2714 14.2501 22.21L13.5801 21.66C13.2301 21.37 12.9201 21.09 12.5801 20.79L11.7401 20.05C11.5925 19.8956 11.4158 19.7719 11.2201 19.6861C11.0245 19.6003 10.8137 19.554 10.6001 19.55L10.6101 19.48Z" fill="#303D46"/>
<path d="M24.3201 3.68991C24.6237 3.68825 24.9246 3.74831 25.2042 3.86648C25.4839 3.98465 25.7366 4.15846 25.947 4.37731C26.1575 4.59617 26.3212 4.85549 26.4284 5.13958C26.5355 5.42367 26.5836 5.72659 26.5701 6.0299C26.5573 6.60312 26.3232 7.14912 25.9169 7.55361C25.5105 7.95811 24.9634 8.1897 24.3901 8.19988H24.2201C23.9246 8.19357 23.6334 8.12807 23.3637 8.00723C23.0939 7.88638 22.8513 7.71264 22.6499 7.49633C22.4485 7.28002 22.2925 7.02551 22.1912 6.74786C22.0899 6.47021 22.0453 6.17509 22.0601 5.87991C22.0706 5.2937 22.3116 4.73522 22.7308 4.32534C23.1501 3.91547 23.7138 3.68718 24.3001 3.68991H24.3201ZM24.3001 2.28991C23.3519 2.28438 22.4395 2.65106 21.7588 3.31115C21.0781 3.97124 20.6837 4.87204 20.6602 5.81991C20.6366 6.31106 20.7131 6.80185 20.885 7.26254C21.0569 7.72323 21.3207 8.14421 21.6602 8.4999C21.9897 8.84567 22.3849 9.12202 22.8229 9.31265C23.2608 9.50328 23.7325 9.60433 24.2101 9.60989H24.3801C25.3213 9.59966 26.2215 9.22329 26.8898 8.56057C27.5581 7.89786 27.9419 7.00092 27.9601 6.0599C27.9821 5.5674 27.9049 5.07549 27.7332 4.6134C27.5614 4.1513 27.2985 3.72843 26.9601 3.3699C26.6215 3.02444 26.2167 2.75074 25.77 2.56518C25.3233 2.37962 24.8438 2.28602 24.3601 2.28991H24.3001Z" fill="#303D46"/>
</svg>
