<svg width="22" height="22" viewBox="0 0 22 22" fill="none" xmlns="http://www.w3.org/2000/svg">
<path fill-rule="evenodd" clip-rule="evenodd" d="M0.732233 0.732233C1.20107 0.263392 1.83696 0 2.5 0H19.5C20.163 0 20.7989 0.263393 21.2678 0.732233C21.7366 1.20107 22 1.83696 22 2.5V19.5C22 20.163 21.7366 20.7989 21.2678 21.2678C20.7989 21.7366 20.163 22 19.5 22H2.5C1.83696 22 1.20107 21.7366 0.732233 21.2678C0.263393 20.7989 0 20.163 0 19.5V2.5C0 1.83696 0.263392 1.20107 0.732233 0.732233ZM2.5 2C2.36739 2 2.24021 2.05268 2.14645 2.14645C2.05268 2.24021 2 2.36739 2 2.5V19.5C2 19.6326 2.05268 19.7598 2.14645 19.8536C2.24022 19.9473 2.36739 20 2.5 20H19.5C19.6326 20 19.7598 19.9473 19.8536 19.8536C19.9473 19.7598 20 19.6326 20 19.5V2.5C20 2.36739 19.9473 2.24022 19.8536 2.14645C19.7598 2.05268 19.6326 2 19.5 2H2.5Z" fill="#303D46"/>
<path fill-rule="evenodd" clip-rule="evenodd" d="M11 6.52734C8.99557 6.52734 7.26571 7.36607 5.76903 9.16658C5.41599 9.59129 4.7855 9.64939 4.36079 9.29635C3.93608 8.94331 3.87798 8.31282 4.23102 7.88811C6.05934 5.68862 8.32948 4.52734 11 4.52734C13.6706 4.52734 15.9407 5.68862 17.769 7.88811C18.1221 8.31282 18.064 8.94331 17.6393 9.29635C17.2146 9.64939 16.5841 9.59129 16.231 9.16658C14.7343 7.36607 13.0045 6.52734 11 6.52734Z" fill="#303D46"/>
<path d="M11 14.5C11.3978 14.5 11.7794 14.342 12.0607 14.0607C12.342 13.7794 12.5 13.3978 12.5 13C12.5 12.6022 12.342 12.2206 12.0607 11.9393C11.7794 11.658 11.3978 11.5 11 11.5C10.6022 11.5 10.2206 11.658 9.93934 11.9393C9.65804 12.2206 9.5 12.6022 9.5 13C9.5 13.3978 9.65804 13.7794 9.93934 14.0607C10.2206 14.342 10.6022 14.5 11 14.5Z" fill="#303D46"/>
<path fill-rule="evenodd" clip-rule="evenodd" d="M7.91822 8.68678C8.36739 8.36543 8.99202 8.46905 9.31337 8.91822L11.8174 12.4182C12.1387 12.8674 12.0351 13.492 11.5859 13.8134C11.1368 14.1347 10.5121 14.0311 10.1908 13.5819L7.68678 10.0819C7.36543 9.63276 7.46905 9.00813 7.91822 8.68678Z" fill="#303D46"/>
</svg>
